<svg width="125" height="37" viewBox="0 0 125 37" fill="none" xmlns="http://www.w3.org/2000/svg">
<path d="M12.72 18.192C14.832 18.192 16.352 17.688 17.28 16.68C18.208 15.672 18.672 14.264 18.672 12.456C18.672 11.656 18.552 10.928 18.312 10.272C18.072 9.61602 17.704 9.05602 17.208 8.59202C16.728 8.11202 16.112 7.74402 15.36 7.48802C14.624 7.23202 13.744 7.10402 12.72 7.10402H8.49603V18.192H12.72ZM12.72 1.03202C15.184 1.03202 17.296 1.32802 19.056 1.92002C20.832 2.49602 22.288 3.29602 23.424 4.32002C24.576 5.34402 25.424 6.55202 25.968 7.94402C26.512 9.33602 26.784 10.84 26.784 12.456C26.784 14.2 26.504 15.8 25.944 17.256C25.384 18.712 24.528 19.96 23.376 21C22.224 22.04 20.76 22.856 18.984 23.448C17.224 24.024 15.136 24.312 12.72 24.312H8.49603V36H0.384033V1.03202H12.72Z" fill="#021313"/>
<path d="M44.5313 20.568C44.5313 19.976 44.4513 19.4 44.2913 18.84C44.1473 18.28 43.8993 17.784 43.5473 17.352C43.2113 16.904 42.7633 16.544 42.2033 16.272C41.6433 16 40.9633 15.864 40.1633 15.864C38.7553 15.864 37.6513 16.272 36.8513 17.088C36.0513 17.888 35.5233 19.048 35.2673 20.568H44.5313ZM35.1713 24.888C35.4113 26.968 36.0433 28.48 37.0673 29.424C38.0913 30.352 39.4113 30.816 41.0273 30.816C41.8913 30.816 42.6353 30.712 43.2593 30.504C43.8833 30.296 44.4353 30.064 44.9153 29.808C45.4113 29.552 45.8593 29.32 46.2593 29.112C46.6753 28.904 47.1073 28.8 47.5553 28.8C48.1473 28.8 48.5953 29.016 48.8993 29.448L51.0593 32.112C50.2913 32.992 49.4593 33.712 48.5633 34.272C47.6833 34.816 46.7713 35.248 45.8273 35.568C44.8993 35.872 43.9633 36.08 43.0193 36.192C42.0913 36.32 41.2033 36.384 40.3553 36.384C38.6113 36.384 36.9713 36.104 35.4353 35.544C33.9153 34.968 32.5793 34.12 31.4273 33C30.2913 31.88 29.3873 30.488 28.7153 28.824C28.0593 27.16 27.7313 25.224 27.7313 23.016C27.7313 21.352 28.0113 19.776 28.5713 18.288C29.1473 16.8 29.9633 15.496 31.0193 14.376C32.0913 13.256 33.3793 12.368 34.8833 11.712C36.4033 11.056 38.1153 10.728 40.0193 10.728C41.6673 10.728 43.1713 10.984 44.5313 11.496C45.9073 12.008 47.0833 12.752 48.0593 13.728C49.0513 14.704 49.8193 15.904 50.3633 17.328C50.9233 18.736 51.2033 20.336 51.2033 22.128C51.2033 22.688 51.1793 23.144 51.1313 23.496C51.0833 23.848 50.9953 24.128 50.8673 24.336C50.7393 24.544 50.5633 24.688 50.3393 24.768C50.1313 24.848 49.8593 24.888 49.5233 24.888H35.1713Z" fill="#021313"/>
<path d="M70.0223 17.784C69.4623 17.16 68.8543 16.728 68.1983 16.488C67.5423 16.232 66.8543 16.104 66.1343 16.104C65.4463 16.104 64.8143 16.24 64.2383 16.512C63.6623 16.784 63.1583 17.224 62.7263 17.832C62.3103 18.424 61.9823 19.2 61.7423 20.16C61.5023 21.12 61.3823 22.28 61.3823 23.64C61.3823 24.952 61.4783 26.056 61.6703 26.952C61.8623 27.848 62.1263 28.576 62.4623 29.136C62.8143 29.68 63.2303 30.072 63.7103 30.312C64.1903 30.552 64.7263 30.672 65.3183 30.672C65.8623 30.672 66.3503 30.624 66.7823 30.528C67.2303 30.416 67.6383 30.264 68.0063 30.072C68.3743 29.88 68.7183 29.64 69.0383 29.352C69.3743 29.048 69.7023 28.704 70.0223 28.32V17.784ZM77.4623 0.0720215V36H72.8543C71.9263 36 71.3183 35.584 71.0303 34.752L70.4543 32.856C69.9583 33.384 69.4383 33.864 68.8943 34.296C68.3503 34.728 67.7583 35.104 67.1183 35.424C66.4943 35.728 65.8143 35.96 65.0783 36.12C64.3583 36.296 63.5743 36.384 62.7263 36.384C61.4303 36.384 60.2303 36.096 59.1263 35.52C58.0223 34.944 57.0703 34.112 56.2703 33.024C55.4703 31.936 54.8383 30.608 54.3743 29.04C53.9263 27.456 53.7023 25.656 53.7023 23.64C53.7023 21.784 53.9583 20.064 54.4703 18.48C54.9823 16.88 55.7023 15.504 56.6303 14.352C57.5743 13.184 58.7023 12.272 60.0143 11.616C61.3263 10.96 62.7743 10.632 64.3583 10.632C65.6543 10.632 66.7423 10.816 67.6223 11.184C68.5023 11.552 69.3023 12.048 70.0223 12.672V0.0720215H77.4623Z" fill="#021313"/>
<path d="M89.4488 14.952C90.2168 13.608 91.0968 12.552 92.0888 11.784C93.0968 11.016 94.2488 10.632 95.5448 10.632C96.6648 10.632 97.5768 10.896 98.2808 11.424L97.8008 16.896C97.7208 17.248 97.5848 17.488 97.3928 17.616C97.2168 17.744 96.9688 17.808 96.6488 17.808C96.5208 17.808 96.3528 17.8 96.1448 17.784C95.9368 17.768 95.7208 17.752 95.4968 17.736C95.2728 17.704 95.0408 17.68 94.8008 17.664C94.5768 17.632 94.3688 17.616 94.1768 17.616C93.0888 17.616 92.2168 17.904 91.5608 18.48C90.9208 19.056 90.3768 19.856 89.9288 20.88V36H82.4888V11.112H86.9048C87.2728 11.112 87.5768 11.144 87.8168 11.208C88.0728 11.272 88.2808 11.376 88.4408 11.52C88.6168 11.648 88.7448 11.824 88.8248 12.048C88.9208 12.272 89.0008 12.544 89.0648 12.864L89.4488 14.952Z" fill="#021313"/>
<path d="M111.867 10.728C113.755 10.728 115.475 11.024 117.027 11.616C118.579 12.208 119.907 13.056 121.011 14.16C122.131 15.264 122.995 16.608 123.603 18.192C124.227 19.76 124.539 21.528 124.539 23.496C124.539 25.48 124.227 27.272 123.603 28.872C122.995 30.456 122.131 31.808 121.011 32.928C119.907 34.032 118.579 34.888 117.027 35.496C115.475 36.088 113.755 36.384 111.867 36.384C109.963 36.384 108.227 36.088 106.659 35.496C105.107 34.888 103.763 34.032 102.627 32.928C101.507 31.808 100.635 30.456 100.011 28.872C99.403 27.272 99.099 25.48 99.099 23.496C99.099 21.528 99.403 19.76 100.011 18.192C100.635 16.608 101.507 15.264 102.627 14.16C103.763 13.056 105.107 12.208 106.659 11.616C108.227 11.024 109.963 10.728 111.867 10.728ZM111.867 30.864C113.579 30.864 114.835 30.264 115.635 29.064C116.451 27.848 116.859 26.008 116.859 23.544C116.859 21.08 116.451 19.248 115.635 18.048C114.835 16.848 113.579 16.248 111.867 16.248C110.107 16.248 108.819 16.848 108.003 18.048C107.187 19.248 106.779 21.08 106.779 23.544C106.779 26.008 107.187 27.848 108.003 29.064C108.819 30.264 110.107 30.864 111.867 30.864Z" fill="#021313"/>
</svg>
